<?xml version="1.0" encoding="UTF-8" standalone="no"?>
<svg
   width="570.26227pt"
   height="189.53613pt"
   viewBox="0 0 570.26227 189.53613"
   version="1.1"
   id="svg152"
   sodipodi:docname="c3djl-logo_path.svg"
   inkscape:version="1.3.1 (9b9bdc1480, 2023-11-25, custom)"
   inkscape:export-filename="c3djl-logo.png"
   inkscape:export-xdpi="300"
   inkscape:export-ydpi="300"
   xmlns:inkscape="http://www.inkscape.org/namespaces/inkscape"
   xmlns:sodipodi="http://sodipodi.sourceforge.net/DTD/sodipodi-0.dtd"
   xmlns="http://www.w3.org/2000/svg"
   xmlns:svg="http://www.w3.org/2000/svg">
  <defs
     id="defs156" />
  <sodipodi:namedview
     id="namedview154"
     pagecolor="#ffffff"
     bordercolor="#666666"
     borderopacity="1.0"
     inkscape:showpageshadow="2"
     inkscape:pageopacity="0.0"
     inkscape:pagecheckerboard="0"
     inkscape:deskcolor="#d1d1d1"
     inkscape:document-units="pt"
     showgrid="false"
     inkscape:zoom="1"
     inkscape:cx="380"
     inkscape:cy="126"
     inkscape:window-width="2490"
     inkscape:window-height="1376"
     inkscape:window-x="0"
     inkscape:window-y="0"
     inkscape:window-maximized="1"
     inkscape:current-layer="layer1" />
  <g
     inkscape:groupmode="layer"
     id="layer1"
     inkscape:label="Background text"
     style="opacity:1"
     transform="translate(63.855923,92.916462)">
    <path
       style="font-size:190px;line-height:1.25;font-family:'Tamil MN';-inkscape-font-specification:'Tamil MN, Normal';stroke-width:0.75"
       d="m 371.88487,43.738811 c 0,-1.855469 0.34017,-3.587239 1.02051,-5.195312 0.68034,-1.669922 1.60807,-3.092448 2.7832,-4.267578 1.23698,-1.236979 2.65951,-2.195638 4.26758,-2.875977 1.66992,-0.742187 3.43262,-1.113281 5.28809,-1.113281 1.85547,0 3.61816,0.371094 5.28808,1.113281 1.66993,0.680339 3.09245,1.638998 4.26758,2.875977 1.23698,1.17513 2.19564,2.597656 2.87598,4.267578 0.74219,1.608073 1.11328,3.339843 1.11328,5.195312 0,1.855469 -0.37109,3.618165 -1.11328,5.288086 -0.68034,1.608073 -1.639,3.0306 -2.87598,4.267579 -1.17513,1.17513 -2.59765,2.102864 -4.26758,2.783203 -1.66992,0.680338 -3.43261,1.020507 -5.28808,1.020507 -1.85547,0 -3.61817,-0.340169 -5.28809,-1.020507 -1.60807,-0.680339 -3.0306,-1.608073 -4.26758,-2.783203 -1.17513,-1.236979 -2.10286,-2.659506 -2.7832,-4.267579 -0.68034,-1.669921 -1.02051,-3.432617 -1.02051,-5.288086 z m 79.50684,11.31836 c 0,8.844401 -1.02051,15.957031 -3.06153,21.33789 -1.97917,5.442709 -4.79329,9.648438 -8.44238,12.617188 -3.64909,3.030599 -8.04036,5.04069 -13.17383,6.030273 -5.13346,1.051433 -10.82356,1.577149 -17.07031,1.577149 -4.20573,0 -7.94759,-0.371094 -11.22558,-1.113281 -3.278,-0.680339 -6.03028,-1.638998 -8.25684,-2.875977 -2.22656,-1.236979 -3.89648,-2.69043 -5.00977,-4.360352 -1.17513,-1.608073 -1.76269,-3.308919 -1.76269,-5.102539 0,-3.154297 1.23698,-5.782877 3.71094,-7.885742 2.47395,-2.102865 5.84472,-3.154297 10.1123,-3.154297 1.60807,0 3.06152,0.247396 4.36035,0.742188 1.23698,0.494791 2.35026,1.113281 3.33985,1.855469 0.98958,0.804036 1.88639,1.638997 2.69043,2.504882 0.74219,0.927735 1.3916,1.79362 1.94824,2.597657 1.42253,1.855469 2.59766,3.092448 3.52539,3.710937 0.98958,0.61849 1.88639,0.927735 2.69043,0.927735 0.86589,0 1.639,-0.216472 2.31933,-0.649415 0.68034,-0.432943 1.23698,-1.206054 1.66993,-2.319335 0.43294,-1.113281 0.74218,-2.597656 0.92773,-4.453125 0.24739,-1.855469 0.37109,-4.236654 0.37109,-7.143555 V -39.107868 l 30.33692,-8.34961 z M 419.75597,-76.310017 c 0,-2.041015 0.40202,-3.958333 1.20605,-5.751953 0.86589,-1.793619 2.04102,-3.339843 3.52539,-4.638672 1.48437,-1.360677 3.21614,-2.412109 5.19531,-3.154297 1.97917,-0.804036 4.08203,-1.206054 6.3086,-1.206054 2.22656,0 4.32942,0.402018 6.30859,1.206054 1.97917,0.742188 3.71094,1.79362 5.19531,3.154297 1.48438,1.298829 2.65951,2.845053 3.52539,4.638672 0.86589,1.79362 1.29883,3.710938 1.29883,5.751953 0,2.041016 -0.43294,3.958334 -1.29883,5.751953 -0.86588,1.79362 -2.04101,3.339844 -3.52539,4.638672 -1.48437,1.298829 -3.21614,2.350261 -5.19531,3.154297 -1.97917,0.742187 -4.08203,1.113281 -6.30859,1.113281 -2.22657,0 -4.32943,-0.371094 -6.3086,-1.113281 -1.97917,-0.804036 -3.71094,-1.855468 -5.19531,-3.154297 -1.48437,-1.298828 -2.6595,-2.845052 -3.52539,-4.638672 -0.80403,-1.793619 -1.20605,-3.710937 -1.20605,-5.751953 z M 506.40636,55.057171 H 476.44054 V -84.566853 l 29.96582,-8.349609 z"
       id="text1"
       aria-label="C3D.jl"
       sodipodi:nodetypes="scscscccscssscccsscccscscssscccccssscsccsscccsccsssscscscsccccc" />
  </g>
  <g
     inkscape:groupmode="layer"
     id="layer2"
     inkscape:label="C3d"
     transform="translate(63.855923,92.916462)"
     style="display:inline">
    <path
       d="m 126.48276,-14.428291 q 7.14355,-0.742188 12.98828,-2.96875 5.9375,-2.319336 10.20508,-5.844727 4.26758,-3.618164 6.58691,-8.349609 2.31934,-4.824219 2.31934,-10.483399 0,-3.618164 -1.29883,-6.772461 -1.20606,-3.24707 -3.43262,-5.566406 -2.22656,-2.319336 -5.38086,-3.618164 -3.15429,-1.391602 -6.95801,-1.391602 -2.69043,0 -5.9375,1.391602 -3.24707,1.391602 -6.49414,3.803711 -3.15429,2.319336 -6.12304,5.473633 -2.96875,3.154297 -5.10254,6.772461 l -11.68946,-5.288086 q 2.31934,-6.308594 6.12305,-11.782227 3.80371,-5.566406 9.0918,-9.648437 5.38086,-4.174805 12.15332,-6.494141 6.86523,-2.412109 15.21484,-2.412109 7.97852,0 14.93653,2.226562 6.958,2.133789 12.15332,6.030274 5.19531,3.896484 8.16406,9.18457 3.06152,5.288086 3.06152,11.503906 0,2.69043 -1.3916,6.123047 -1.29883,3.339844 -3.71094,6.865234 -2.31933,3.525391 -5.65918,7.050782 -3.33984,3.52539 -7.23632,6.586914 5.28808,2.319336 9.83398,6.030273 4.63867,3.618164 7.97852,8.0712893 3.33984,4.453125 5.19531,9.4628906 1.94824,5.0097657 1.94824,9.9267581 0,11.689453 -4.82422,20.410156 -4.73144,8.720703 -13.08105,14.56543 -8.34961,5.844726 -19.76075,8.720703 -11.31835,2.875976 -24.39941,2.875976 -6.40137,0 -11.50391,-0.927734 -5.10253,-0.927734 -8.7207,-2.597656 -3.52539,-1.762696 -5.38086,-4.082032 -1.85547,-2.412109 -1.85547,-5.195312 0,-2.783203 1.48438,-4.545898 1.57715,-1.855469 3.89648,-2.875977 2.31934,-1.113281 5.00977,-1.577148 2.69043,-0.463868 5.00976,-0.463868 4.917,0 8.62793,1.391602 3.80371,1.391601 6.86524,3.061523 3.06152,1.669922 5.5664,3.061524 2.59766,1.391601 5.28809,1.391601 5.28809,0 9.27734,-1.948242 4.08203,-1.948242 6.77246,-5.195312 2.78321,-3.247071 4.17481,-7.421875 1.3916,-4.267578 1.3916,-8.90625 0,-5.9375 -2.50488,-10.947266 -2.50488,-5.102539 -7.60742,-8.8134765 -5.10254,-3.8037109 -12.89551,-5.9375 -7.79297,-2.1337891 -18.36914,-2.1337891 z"
       id="text700"
       style="font-size:190px;line-height:1.25;font-family:'Tamil MN';-inkscape-font-specification:'Tamil MN, Normal';fill:#389723;stroke:#2b741b;stroke-width:4.1"
       aria-label="3" />
    <path
       d="m 226.11653,-77.304356 h 47.96387 q 18.46191,0 33.95508,4.360352 15.49316,4.267578 26.62597,12.617187 11.22559,8.256836 17.44141,20.317383 6.21582,12.060547 6.21582,27.553711 0,13.9160158 -5.28809,26.254883 -5.19531,12.246094 -15.30761,21.337891 -10.11231,9.091797 -24.86328,14.379882 -14.65821,5.288086 -33.67676,5.288086 h -53.06641 z m 32.37793,118.564454 h 17.25586 q 9.55566,0 17.99805,-3.525391 8.44238,-3.525391 14.75097,-10.297852 6.3086,-6.865234 9.92676,-16.791992 3.71094,-9.92675768 3.71094,-22.822265 0,-11.132813 -3.43262,-20.595704 -3.43262,-9.46289 -9.64844,-16.420898 -6.12304,-6.958008 -14.6582,-10.854492 -8.53515,-3.896485 -18.64746,-3.896485 h -17.25586 z"
       id="text704"
       style="font-size:190px;line-height:1.25;font-family:'Tamil MN';-inkscape-font-specification:'Tamil MN, Normal';fill:#9457b0;stroke:#7f4899;stroke-width:4.1"
       aria-label="D" />
    <path
       d="m -25.80983,-11.213383 q 0,12.8027347 3.896485,22.636719 3.896484,9.833984 10.297851,16.513672 6.4941409,6.679687 14.8437502,10.112305 8.4423828,3.432617 17.4414058,3.432617 6.958008,0 12.895508,-2.41211 6.030274,-2.412109 11.225586,-6.401367 5.288086,-4.082031 9.833985,-9.370117 4.545898,-5.380859 8.720703,-11.318359 l 13.544922,9.926757 q -4.360352,7.050782 -10.576172,13.544922 -6.123047,6.494141 -13.823242,11.503907 -7.700196,5.009765 -16.791993,7.978515 -9.091797,2.96875 -19.204101,2.96875 -17.07031271,0 -31.450196,-4.916992 -14.287109,-5.009766 -24.770507,-14.101562 -10.390625,-9.091797 -16.235352,-21.801758 -5.844726,-12.7099612 -5.844726,-28.295899 0,-10.019531 2.504882,-19.018554 2.504883,-9.091797 7.143555,-16.791993 4.731445,-7.700195 11.503906,-13.823242 6.772461,-6.21582 15.214844,-10.576172 8.535156,-4.360351 18.647461,-6.679687 10.1123047,-2.319336 21.430664,-2.319336 11.411133,0 20.874023,2.69043 9.555665,2.597656 17.25586,7.421875 7.792969,4.731445 13.823242,11.318359 6.123047,6.586914 10.761719,14.379883 l -13.730469,9.555664 q -4.174805,-5.9375 -9.091797,-11.132813 -4.824219,-5.288086 -10.390625,-9.18457 -5.566406,-3.989258 -11.689453,-6.308594 -6.123047,-2.319336 -12.802734,-2.319336 -9.091797,0 -17.3486331,3.432618 -8.256836,3.432617 -14.5654299,10.112304 -6.21582,6.679688 -9.926758,16.513672 -3.618164,9.833984 -3.618164,22.729492 z"
       id="text316"
       style="font-size:190px;line-height:1.25;font-family:'Tamil MN';-inkscape-font-specification:'Tamil MN, Normal';fill:#ca3a33;stroke:#a32f29;stroke-width:4.1"
       aria-label="C" />
    <path
       id="path1"
       style="fill:#4063d8;stroke-width:4.75352"
       d="m 452.71802,-76.253029 a 16.540283,14.949872 0 0 1 -16.54029,14.949872 16.540283,14.949872 0 0 1 -16.54028,-14.949872 16.540283,14.949872 0 0 1 16.54028,-14.949872 16.540283,14.949872 0 0 1 16.54029,14.949872 z" />
  </g>
</svg>
