<?xml version="1.0" encoding="utf-8"?>
<svg xmlns="http://www.w3.org/2000/svg" xmlns:xlink="http://www.w3.org/1999/xlink" width="672" height="336" viewBox="0 0 2688 1344">
<defs>
  <clipPath id="clip520">
    <rect x="0" y="0" width="2688" height="1344"/>
  </clipPath>
</defs>
<path clip-path="url(#clip520)" d="M0 1344 L2688 1344 L2688 0 L0 0  Z" fill="#ffffff" fill-rule="evenodd" fill-opacity="1"/>
<defs>
  <clipPath id="clip521">
    <rect x="537" y="0" width="1883" height="1344"/>
  </clipPath>
</defs>
<path clip-path="url(#clip520)" d="M183.17 1228.69 L2640.76 1228.69 L2640.76 47.2441 L183.17 47.2441  Z" fill="#ffffff" fill-rule="evenodd" fill-opacity="1"/>
<defs>
  <clipPath id="clip522">
    <rect x="183" y="47" width="2459" height="1182"/>
  </clipPath>
</defs>
<polyline clip-path="url(#clip522)" style="stroke:#000000; stroke-linecap:round; stroke-linejoin:round; stroke-width:2; stroke-opacity:0.1; fill:none" points="252.725,1228.69 252.725,47.2441 "/>
<polyline clip-path="url(#clip522)" style="stroke:#000000; stroke-linecap:round; stroke-linejoin:round; stroke-width:2; stroke-opacity:0.1; fill:none" points="756.741,1228.69 756.741,47.2441 "/>
<polyline clip-path="url(#clip522)" style="stroke:#000000; stroke-linecap:round; stroke-linejoin:round; stroke-width:2; stroke-opacity:0.1; fill:none" points="1260.76,1228.69 1260.76,47.2441 "/>
<polyline clip-path="url(#clip522)" style="stroke:#000000; stroke-linecap:round; stroke-linejoin:round; stroke-width:2; stroke-opacity:0.1; fill:none" points="1764.77,1228.69 1764.77,47.2441 "/>
<polyline clip-path="url(#clip522)" style="stroke:#000000; stroke-linecap:round; stroke-linejoin:round; stroke-width:2; stroke-opacity:0.1; fill:none" points="2268.79,1228.69 2268.79,47.2441 "/>
<polyline clip-path="url(#clip522)" style="stroke:#000000; stroke-linecap:round; stroke-linejoin:round; stroke-width:2; stroke-opacity:0.1; fill:none" points="183.17,1085.38 2640.76,1085.38 "/>
<polyline clip-path="url(#clip522)" style="stroke:#000000; stroke-linecap:round; stroke-linejoin:round; stroke-width:2; stroke-opacity:0.1; fill:none" points="183.17,861.675 2640.76,861.675 "/>
<polyline clip-path="url(#clip522)" style="stroke:#000000; stroke-linecap:round; stroke-linejoin:round; stroke-width:2; stroke-opacity:0.1; fill:none" points="183.17,637.966 2640.76,637.966 "/>
<polyline clip-path="url(#clip522)" style="stroke:#000000; stroke-linecap:round; stroke-linejoin:round; stroke-width:2; stroke-opacity:0.1; fill:none" points="183.17,414.257 2640.76,414.257 "/>
<polyline clip-path="url(#clip522)" style="stroke:#000000; stroke-linecap:round; stroke-linejoin:round; stroke-width:2; stroke-opacity:0.1; fill:none" points="183.17,190.548 2640.76,190.548 "/>
<polyline clip-path="url(#clip520)" style="stroke:#000000; stroke-linecap:round; stroke-linejoin:round; stroke-width:4; stroke-opacity:1; fill:none" points="183.17,1228.69 2640.76,1228.69 "/>
<polyline clip-path="url(#clip520)" style="stroke:#000000; stroke-linecap:round; stroke-linejoin:round; stroke-width:4; stroke-opacity:1; fill:none" points="252.725,1228.69 252.725,1209.79 "/>
<polyline clip-path="url(#clip520)" style="stroke:#000000; stroke-linecap:round; stroke-linejoin:round; stroke-width:4; stroke-opacity:1; fill:none" points="756.741,1228.69 756.741,1209.79 "/>
<polyline clip-path="url(#clip520)" style="stroke:#000000; stroke-linecap:round; stroke-linejoin:round; stroke-width:4; stroke-opacity:1; fill:none" points="1260.76,1228.69 1260.76,1209.79 "/>
<polyline clip-path="url(#clip520)" style="stroke:#000000; stroke-linecap:round; stroke-linejoin:round; stroke-width:4; stroke-opacity:1; fill:none" points="1764.77,1228.69 1764.77,1209.79 "/>
<polyline clip-path="url(#clip520)" style="stroke:#000000; stroke-linecap:round; stroke-linejoin:round; stroke-width:4; stroke-opacity:1; fill:none" points="2268.79,1228.69 2268.79,1209.79 "/>
<path clip-path="url(#clip520)" d="M252.725 1267.77 Q247.308 1267.77 244.565 1273.12 Q241.857 1278.43 241.857 1289.12 Q241.857 1299.78 244.565 1305.13 Q247.308 1310.44 252.725 1310.44 Q258.176 1310.44 260.884 1305.13 Q263.627 1299.78 263.627 1289.12 Q263.627 1278.43 260.884 1273.12 Q258.176 1267.77 252.725 1267.77 M252.725 1262.21 Q261.44 1262.21 266.023 1269.12 Q270.641 1276 270.641 1289.12 Q270.641 1302.21 266.023 1309.12 Q261.44 1316 252.725 1316 Q244.009 1316 239.391 1309.12 Q234.808 1302.21 234.808 1289.12 Q234.808 1276 239.391 1269.12 Q244.009 1262.21 252.725 1262.21 Z" fill="#000000" fill-rule="nonzero" fill-opacity="1" /><path clip-path="url(#clip520)" d="M742.158 1263.15 L769.693 1263.15 L769.693 1269.05 L748.582 1269.05 L748.582 1281.76 Q750.109 1281.24 751.637 1281 Q753.165 1280.72 754.693 1280.72 Q763.373 1280.72 768.443 1285.48 Q773.512 1290.24 773.512 1298.36 Q773.512 1306.73 768.304 1311.38 Q763.095 1316 753.616 1316 Q750.352 1316 746.95 1315.44 Q743.582 1314.89 739.971 1313.78 L739.971 1306.73 Q743.096 1308.43 746.429 1309.26 Q749.762 1310.1 753.477 1310.1 Q759.484 1310.1 762.991 1306.94 Q766.498 1303.78 766.498 1298.36 Q766.498 1292.94 762.991 1289.78 Q759.484 1286.62 753.477 1286.62 Q750.665 1286.62 747.852 1287.25 Q745.075 1287.87 742.158 1289.19 L742.158 1263.15 Z" fill="#000000" fill-rule="nonzero" fill-opacity="1" /><path clip-path="url(#clip520)" d="M1222.79 1309.09 L1234.25 1309.09 L1234.25 1269.54 L1221.78 1272.04 L1221.78 1265.65 L1234.18 1263.15 L1241.19 1263.15 L1241.19 1309.09 L1252.65 1309.09 L1252.65 1314.99 L1222.79 1314.99 L1222.79 1309.09 Z" fill="#000000" fill-rule="nonzero" fill-opacity="1" /><path clip-path="url(#clip520)" d="M1281.82 1267.77 Q1276.4 1267.77 1273.66 1273.12 Q1270.95 1278.43 1270.95 1289.12 Q1270.95 1299.78 1273.66 1305.13 Q1276.4 1310.44 1281.82 1310.44 Q1287.27 1310.44 1289.98 1305.13 Q1292.72 1299.78 1292.72 1289.12 Q1292.72 1278.43 1289.98 1273.12 Q1287.27 1267.77 1281.82 1267.77 M1281.82 1262.21 Q1290.53 1262.21 1295.12 1269.12 Q1299.73 1276 1299.73 1289.12 Q1299.73 1302.21 1295.12 1309.12 Q1290.53 1316 1281.82 1316 Q1273.1 1316 1268.48 1309.12 Q1263.9 1302.21 1263.9 1289.12 Q1263.9 1276 1268.48 1269.12 Q1273.1 1262.21 1281.82 1262.21 Z" fill="#000000" fill-rule="nonzero" fill-opacity="1" /><path clip-path="url(#clip520)" d="M1727.55 1309.09 L1739.01 1309.09 L1739.01 1269.54 L1726.55 1272.04 L1726.55 1265.65 L1738.94 1263.15 L1745.96 1263.15 L1745.96 1309.09 L1757.41 1309.09 L1757.41 1314.99 L1727.55 1314.99 L1727.55 1309.09 Z" fill="#000000" fill-rule="nonzero" fill-opacity="1" /><path clip-path="url(#clip520)" d="M1771.65 1263.15 L1799.18 1263.15 L1799.18 1269.05 L1778.07 1269.05 L1778.07 1281.76 Q1779.6 1281.24 1781.13 1281 Q1782.66 1280.72 1784.18 1280.72 Q1792.86 1280.72 1797.93 1285.48 Q1803 1290.24 1803 1298.36 Q1803 1306.73 1797.8 1311.38 Q1792.59 1316 1783.11 1316 Q1779.84 1316 1776.44 1315.44 Q1773.07 1314.89 1769.46 1313.78 L1769.46 1306.73 Q1772.59 1308.43 1775.92 1309.26 Q1779.25 1310.1 1782.97 1310.1 Q1788.98 1310.1 1792.48 1306.94 Q1795.99 1303.78 1795.99 1298.36 Q1795.99 1292.94 1792.48 1289.78 Q1788.98 1286.62 1782.97 1286.62 Q1780.16 1286.62 1777.34 1287.25 Q1774.57 1287.87 1771.65 1289.19 L1771.65 1263.15 Z" fill="#000000" fill-rule="nonzero" fill-opacity="1" /><path clip-path="url(#clip520)" d="M2236.95 1309.09 L2261.43 1309.09 L2261.43 1314.99 L2228.51 1314.99 L2228.51 1309.09 Q2232.51 1304.96 2239.38 1298.01 Q2246.29 1291.03 2248.06 1289.02 Q2251.43 1285.24 2252.75 1282.63 Q2254.1 1279.99 2254.1 1277.46 Q2254.1 1273.33 2251.19 1270.72 Q2248.31 1268.12 2243.65 1268.12 Q2240.35 1268.12 2236.67 1269.26 Q2233.03 1270.41 2228.86 1272.74 L2228.86 1265.65 Q2233.1 1263.95 2236.78 1263.08 Q2240.46 1262.21 2243.51 1262.21 Q2251.57 1262.21 2256.36 1266.24 Q2261.15 1270.27 2261.15 1277.01 Q2261.15 1280.2 2259.94 1283.08 Q2258.76 1285.93 2255.6 1289.82 Q2254.73 1290.83 2250.08 1295.65 Q2245.42 1300.44 2236.95 1309.09 Z" fill="#000000" fill-rule="nonzero" fill-opacity="1" /><path clip-path="url(#clip520)" d="M2291.15 1267.77 Q2285.74 1267.77 2282.99 1273.12 Q2280.28 1278.43 2280.28 1289.12 Q2280.28 1299.78 2282.99 1305.13 Q2285.74 1310.44 2291.15 1310.44 Q2296.6 1310.44 2299.31 1305.13 Q2302.06 1299.78 2302.06 1289.12 Q2302.06 1278.43 2299.31 1273.12 Q2296.6 1267.77 2291.15 1267.77 M2291.15 1262.21 Q2299.87 1262.21 2304.45 1269.12 Q2309.07 1276 2309.07 1289.12 Q2309.07 1302.21 2304.45 1309.12 Q2299.87 1316 2291.15 1316 Q2282.44 1316 2277.82 1309.12 Q2273.24 1302.21 2273.24 1289.12 Q2273.24 1276 2277.82 1269.12 Q2282.44 1262.21 2291.15 1262.21 Z" fill="#000000" fill-rule="nonzero" fill-opacity="1" /><polyline clip-path="url(#clip520)" style="stroke:#000000; stroke-linecap:round; stroke-linejoin:round; stroke-width:4; stroke-opacity:1; fill:none" points="183.17,1228.69 183.17,47.2441 "/>
<polyline clip-path="url(#clip520)" style="stroke:#000000; stroke-linecap:round; stroke-linejoin:round; stroke-width:4; stroke-opacity:1; fill:none" points="183.17,1085.38 202.068,1085.38 "/>
<polyline clip-path="url(#clip520)" style="stroke:#000000; stroke-linecap:round; stroke-linejoin:round; stroke-width:4; stroke-opacity:1; fill:none" points="183.17,861.675 202.068,861.675 "/>
<polyline clip-path="url(#clip520)" style="stroke:#000000; stroke-linecap:round; stroke-linejoin:round; stroke-width:4; stroke-opacity:1; fill:none" points="183.17,637.966 202.068,637.966 "/>
<polyline clip-path="url(#clip520)" style="stroke:#000000; stroke-linecap:round; stroke-linejoin:round; stroke-width:4; stroke-opacity:1; fill:none" points="183.17,414.257 202.068,414.257 "/>
<polyline clip-path="url(#clip520)" style="stroke:#000000; stroke-linecap:round; stroke-linejoin:round; stroke-width:4; stroke-opacity:1; fill:none" points="183.17,190.548 202.068,190.548 "/>
<path clip-path="url(#clip520)" d="M49.5521 1086.06 L94.0658 1086.06 L94.0658 1091.96 L49.5521 1091.96 L49.5521 1086.06 Z" fill="#000000" fill-rule="nonzero" fill-opacity="1" /><path clip-path="url(#clip520)" d="M128.475 1065.57 L110.767 1093.25 L128.475 1093.25 L128.475 1065.57 M126.635 1059.46 L135.454 1059.46 L135.454 1093.25 L142.85 1093.25 L142.85 1099.08 L135.454 1099.08 L135.454 1111.3 L128.475 1111.3 L128.475 1099.08 L105.073 1099.08 L105.073 1092.31 L126.635 1059.46 Z" fill="#000000" fill-rule="nonzero" fill-opacity="1" /><path clip-path="url(#clip520)" d="M52.6771 862.352 L97.1908 862.352 L97.1908 868.255 L52.6771 868.255 L52.6771 862.352 Z" fill="#000000" fill-rule="nonzero" fill-opacity="1" /><path clip-path="url(#clip520)" d="M118.371 881.692 L142.85 881.692 L142.85 887.595 L109.934 887.595 L109.934 881.692 Q113.927 877.56 120.802 870.616 Q127.711 863.637 129.482 861.623 Q132.85 857.838 134.17 855.234 Q135.524 852.595 135.524 850.06 Q135.524 845.928 132.607 843.324 Q129.725 840.72 125.073 840.72 Q121.774 840.72 118.093 841.866 Q114.448 843.012 110.281 845.338 L110.281 838.255 Q114.517 836.553 118.198 835.685 Q121.878 834.817 124.934 834.817 Q132.989 834.817 137.781 838.845 Q142.572 842.873 142.572 849.609 Q142.572 852.803 141.357 855.685 Q140.177 858.533 137.017 862.421 Q136.149 863.428 131.496 868.255 Q126.843 873.046 118.371 881.692 Z" fill="#000000" fill-rule="nonzero" fill-opacity="1" /><path clip-path="url(#clip520)" d="M124.934 616.664 Q119.517 616.664 116.774 622.011 Q114.066 627.324 114.066 638.018 Q114.066 648.678 116.774 654.025 Q119.517 659.337 124.934 659.337 Q130.385 659.337 133.093 654.025 Q135.836 648.678 135.836 638.018 Q135.836 627.324 133.093 622.011 Q130.385 616.664 124.934 616.664 M124.934 611.108 Q133.649 611.108 138.232 618.018 Q142.85 624.893 142.85 638.018 Q142.85 651.108 138.232 658.018 Q133.649 664.893 124.934 664.893 Q116.218 664.893 111.6 658.018 Q107.017 651.108 107.017 638.018 Q107.017 624.893 111.6 618.018 Q116.218 611.108 124.934 611.108 Z" fill="#000000" fill-rule="nonzero" fill-opacity="1" /><path clip-path="url(#clip520)" d="M118.371 434.274 L142.85 434.274 L142.85 440.177 L109.934 440.177 L109.934 434.274 Q113.927 430.142 120.802 423.198 Q127.711 416.219 129.482 414.205 Q132.85 410.42 134.17 407.816 Q135.524 405.177 135.524 402.643 Q135.524 398.511 132.607 395.907 Q129.725 393.302 125.073 393.302 Q121.774 393.302 118.093 394.448 Q114.448 395.594 110.281 397.92 L110.281 390.837 Q114.517 389.136 118.198 388.268 Q121.878 387.4 124.934 387.4 Q132.989 387.4 137.781 391.427 Q142.572 395.455 142.572 402.191 Q142.572 405.386 141.357 408.268 Q140.177 411.115 137.017 415.004 Q136.149 416.011 131.496 420.837 Q126.843 425.629 118.371 434.274 Z" fill="#000000" fill-rule="nonzero" fill-opacity="1" /><path clip-path="url(#clip520)" d="M128.475 170.739 L110.767 198.413 L128.475 198.413 L128.475 170.739 M126.635 164.628 L135.454 164.628 L135.454 198.413 L142.85 198.413 L142.85 204.246 L135.454 204.246 L135.454 216.468 L128.475 216.468 L128.475 204.246 L105.073 204.246 L105.073 197.475 L126.635 164.628 Z" fill="#000000" fill-rule="nonzero" fill-opacity="1" /><polyline clip-path="url(#clip522)" style="stroke:#000000; stroke-linecap:round; stroke-linejoin:round; stroke-width:8; stroke-opacity:1; fill:none" points="252.725,637.966 256.757,619.702 260.789,601.49 264.821,583.382 268.853,565.429 272.885,547.681 276.917,530.189 280.949,513 284.982,496.16 289.014,479.714 293.046,463.705 297.078,448.173 301.11,433.155 305.142,418.687 309.174,404.801 313.207,391.526 317.239,378.888 321.271,366.91 325.303,355.611 329.335,345.006 333.367,335.109 337.399,325.927 341.431,317.465 345.464,309.726 349.496,302.705 353.528,296.399 357.56,290.796 361.592,285.884 365.624,281.646 369.656,278.063 373.689,275.112 377.721,272.767 381.753,270.999 385.785,269.777 389.817,269.067 393.849,268.833 397.881,269.037 401.914,269.638 405.946,270.595 409.978,271.865 414.01,273.404 418.042,275.168 422.074,277.112 426.106,279.188 430.138,281.354 434.171,283.561 438.203,285.768 442.235,287.928 446.267,290 450.299,291.942 454.331,293.713 458.363,295.277 462.396,296.597 466.428,297.639 470.46,298.371 474.492,298.765 478.524,298.796 482.556,298.439 486.588,297.675 490.62,296.487 494.653,294.863 498.685,292.791 502.717,290.266 506.749,287.284 510.781,283.847 514.813,279.957 518.845,275.622 522.878,270.854 526.91,265.666 530.942,260.076 534.974,254.105 539.006,247.778 543.038,241.12 547.07,234.162 551.102,226.936 555.135,219.476 559.167,211.82 563.199,204.007 567.231,196.077 571.263,188.074 575.295,180.04 579.327,172.02 583.36,164.061 587.392,156.208 591.424,148.508 595.456,141.007 599.488,133.751 603.52,126.787 607.552,120.158 611.584,113.909 615.617,108.082 619.649,102.718 623.681,97.8567 627.713,93.5341 631.745,89.7853 635.777,86.6426 639.809,84.1356 643.842,82.2911 647.874,81.1327 651.906,80.6812 655.938,80.9537 659.97,81.9641 664.002,83.7228 668.034,86.2366 672.066,89.5088 676.099,93.5388 680.131,98.3225 684.163,103.852 688.195,110.116 692.227,117.1 696.259,124.785 700.291,133.149 704.324,142.167 708.356,151.81 712.388,162.048 716.42,172.845 720.452,184.165 724.484,195.969 728.516,208.213 732.548,220.856 736.581,233.85 740.613,247.149 744.645,260.704 748.677,274.465 752.709,288.382 756.741,302.403 760.773,316.477 764.806,330.552 768.838,344.578 772.87,358.504 776.902,372.279 780.934,385.856 784.966,399.187 788.998,412.225 793.031,424.928 797.063,437.252 801.095,449.159 805.127,460.611 809.159,471.574 813.191,482.016 817.223,491.908 821.255,501.225 825.288,509.945 829.32,518.049 833.352,525.522 837.384,532.351 841.416,538.53 845.448,544.053 849.48,548.92 853.513,553.133 857.545,556.699 861.577,559.628 865.609,561.933 869.641,563.632 873.673,564.743 877.705,565.292 881.737,565.303 885.77,564.806 889.802,563.833 893.834,562.417 897.866,560.596 901.898,558.408 905.93,555.893 909.962,553.093 913.995,550.052 918.027,546.812 922.059,543.421 926.091,539.922 930.123,536.362 934.155,532.787 938.187,529.241 942.219,525.771 946.252,522.42 950.284,519.23 954.316,516.245 958.348,513.503 962.38,511.043 966.412,508.902 970.444,507.113 974.477,505.707 978.509,504.715 982.541,504.16 986.573,504.068 990.605,504.458 994.637,505.345 998.669,506.745 1002.7,508.667 1006.73,511.117 1010.77,514.099 1014.8,517.611 1018.83,521.651 1022.86,526.211 1026.89,531.279 1030.93,536.841 1034.96,542.88 1038.99,549.374 1043.02,556.301 1047.05,563.631 1051.09,571.337 1055.12,579.385 1059.15,587.74 1063.18,596.366 1067.22,605.223 1071.25,614.27 1075.28,623.465 1079.31,632.763 1083.34,642.12 1087.38,651.489 1091.41,660.825 1095.44,670.081 1099.47,679.21 1103.5,688.165 1107.54,696.901 1111.57,705.373 1115.6,713.535 1119.63,721.347 1123.67,728.766 1127.7,735.753 1131.73,742.271 1135.76,748.285 1139.79,753.761 1143.83,758.671 1147.86,762.987 1151.89,766.684 1155.92,769.742 1159.95,772.144 1163.99,773.874 1168.02,774.922 1172.05,775.282 1176.08,774.948 1180.12,773.921 1184.15,772.205 1188.18,769.807 1192.21,766.739 1196.24,763.013 1200.28,758.649 1204.31,753.668 1208.34,748.095 1212.37,741.956 1216.4,735.284 1220.44,728.113 1224.47,720.477 1228.5,712.417 1232.53,703.973 1236.57,695.189 1240.6,686.11 1244.63,676.783 1248.66,667.255 1252.69,657.577 1256.73,647.797 1260.76,637.966 1264.79,628.135 1268.82,618.355 1272.85,608.676 1276.89,599.149 1280.92,589.822 1284.95,580.743 1288.98,571.959 1293.02,563.515 1297.05,555.455 1301.08,547.819 1305.11,540.647 1309.14,533.975 1313.18,527.837 1317.21,522.264 1321.24,517.283 1325.27,512.919 1329.3,509.193 1333.34,506.125 1337.37,503.727 1341.4,502.011 1345.43,500.984 1349.46,500.65 1353.5,501.01 1357.53,502.058 1361.56,503.788 1365.59,506.19 1369.63,509.248 1373.66,512.945 1377.69,517.261 1381.72,522.17 1385.75,527.647 1389.79,533.661 1393.82,540.179 1397.85,547.166 1401.88,554.585 1405.91,562.397 1409.95,570.559 1413.98,579.031 1418.01,587.767 1422.04,596.722 1426.08,605.851 1430.11,615.107 1434.14,624.443 1438.17,633.812 1442.2,643.169 1446.24,652.467 1450.27,661.662 1454.3,670.709 1458.33,679.566 1462.36,688.192 1466.4,696.547 1470.43,704.595 1474.46,712.301 1478.49,719.631 1482.53,726.558 1486.56,733.052 1490.59,739.091 1494.62,744.653 1498.65,749.721 1502.69,754.281 1506.72,758.32 1510.75,761.833 1514.78,764.815 1518.81,767.265 1522.85,769.187 1526.88,770.587 1530.91,771.474 1534.94,771.864 1538.98,771.771 1543.01,771.217 1547.04,770.225 1551.07,768.819 1555.1,767.03 1559.14,764.889 1563.17,762.429 1567.2,759.687 1571.23,756.702 1575.26,753.512 1579.3,750.161 1583.33,746.691 1587.36,743.145 1591.39,739.57 1595.43,736.01 1599.46,732.511 1603.49,729.12 1607.52,725.88 1611.55,722.839 1615.59,720.039 1619.62,717.524 1623.65,715.336 1627.68,713.515 1631.71,712.099 1635.75,711.126 1639.78,710.629 1643.81,710.64 1647.84,711.189 1651.88,712.3 1655.91,713.999 1659.94,716.304 1663.97,719.233 1668,722.799 1672.04,727.012 1676.07,731.879 1680.1,737.402 1684.13,743.581 1688.16,750.41 1692.2,757.883 1696.23,765.987 1700.26,774.707 1704.29,784.024 1708.32,793.916 1712.36,804.358 1716.39,815.321 1720.42,826.773 1724.45,838.68 1728.49,851.004 1732.52,863.707 1736.55,876.745 1740.58,890.076 1744.61,903.653 1748.65,917.428 1752.68,931.354 1756.71,945.38 1760.74,959.455 1764.77,973.529 1768.81,987.55 1772.84,1001.47 1776.87,1015.23 1780.9,1028.78 1784.94,1042.08 1788.97,1055.08 1793,1067.72 1797.03,1079.96 1801.06,1091.77 1805.1,1103.09 1809.13,1113.88 1813.16,1124.12 1817.19,1133.77 1821.22,1142.78 1825.26,1151.15 1829.29,1158.83 1833.32,1165.82 1837.35,1172.08 1841.39,1177.61 1845.42,1182.39 1849.45,1186.42 1853.48,1189.7 1857.51,1192.21 1861.55,1193.97 1865.58,1194.98 1869.61,1195.25 1873.64,1194.8 1877.67,1193.64 1881.71,1191.8 1885.74,1189.29 1889.77,1186.15 1893.8,1182.4 1897.84,1178.08 1901.87,1173.21 1905.9,1167.85 1909.93,1162.02 1913.96,1155.77 1918,1149.15 1922.03,1142.18 1926.06,1134.93 1930.09,1127.42 1934.12,1119.72 1938.16,1111.87 1942.19,1103.91 1946.22,1095.89 1950.25,1087.86 1954.29,1079.85 1958.32,1071.92 1962.35,1064.11 1966.38,1056.46 1970.41,1049 1974.45,1041.77 1978.48,1034.81 1982.51,1028.15 1986.54,1021.83 1990.57,1015.86 1994.61,1010.27 1998.64,1005.08 2002.67,1000.31 2006.7,995.975 2010.73,992.085 2014.77,988.647 2018.8,985.666 2022.83,983.141 2026.86,981.069 2030.9,979.445 2034.93,978.257 2038.96,977.493 2042.99,977.136 2047.02,977.167 2051.06,977.561 2055.09,978.293 2059.12,979.335 2063.15,980.655 2067.18,982.219 2071.22,983.99 2075.25,985.932 2079.28,988.004 2083.31,990.164 2087.35,992.371 2091.38,994.578 2095.41,996.743 2099.44,998.82 2103.47,1000.76 2107.51,1002.53 2111.54,1004.07 2115.57,1005.34 2119.6,1006.29 2123.63,1006.9 2127.67,1007.1 2131.7,1006.86 2135.73,1006.15 2139.76,1004.93 2143.8,1003.16 2147.83,1000.82 2151.86,997.869 2155.89,994.286 2159.92,990.048 2163.96,985.136 2167.99,979.533 2172.02,973.227 2176.05,966.206 2180.08,958.467 2184.12,950.005 2188.15,940.823 2192.18,930.926 2196.21,920.321 2200.25,909.022 2204.28,897.044 2208.31,884.406 2212.34,871.131 2216.37,857.245 2220.41,842.777 2224.44,827.759 2228.47,812.227 2232.5,796.218 2236.53,779.772 2240.57,762.932 2244.6,745.743 2248.63,728.251 2252.66,710.503 2256.7,692.55 2260.73,674.442 2264.76,656.23 2268.79,637.966 2272.82,619.702 2276.86,601.49 2280.89,583.382 2284.92,565.429 2288.95,547.681 2292.98,530.189 2297.02,513 2301.05,496.16 2305.08,479.714 2309.11,463.705 2313.15,448.173 2317.18,433.155 2321.21,418.687 2325.24,404.801 2329.27,391.526 2333.31,378.888 2337.34,366.91 2341.37,355.611 2345.4,345.006 2349.43,335.109 2353.47,325.927 2357.5,317.465 2361.53,309.726 2365.56,302.705 2369.59,296.399 2373.63,290.796 2377.66,285.884 2381.69,281.646 2385.72,278.063 2389.76,275.112 2393.79,272.767 2397.82,270.999 2401.85,269.777 2405.88,269.067 2409.92,268.833 2413.95,269.037 2417.98,269.638 2422.01,270.595 2426.04,271.865 2430.08,273.404 2434.11,275.168 2438.14,277.112 2442.17,279.188 2446.21,281.354 2450.24,283.561 2454.27,285.768 2458.3,287.928 2462.33,290 2466.37,291.942 2470.4,293.713 2474.43,295.277 2478.46,296.597 2482.49,297.639 2486.53,298.371 2490.56,298.765 2494.59,298.796 2498.62,298.439 2502.66,297.675 2506.69,296.487 2510.72,294.863 2514.75,292.791 2518.78,290.266 2522.82,287.284 2526.85,283.847 2530.88,279.957 2534.91,275.622 2538.94,270.854 2542.98,265.666 2547.01,260.076 2551.04,254.105 2555.07,247.778 2559.11,241.12 2563.14,234.162 2567.17,226.936 2571.2,219.476 "/>
<polyline clip-path="url(#clip522)" style="stroke:#0000ff; stroke-linecap:round; stroke-linejoin:round; stroke-width:4; stroke-opacity:1; fill:none" points="393.849,298.796 393.849,268.833 "/>
<polyline clip-path="url(#clip522)" style="stroke:#0000ff; stroke-linecap:round; stroke-linejoin:round; stroke-width:4; stroke-opacity:1; fill:none" points="651.906,637.966 651.906,80.6812 "/>
<polyline clip-path="url(#clip522)" style="stroke:#0000ff; stroke-linecap:round; stroke-linejoin:round; stroke-width:4; stroke-opacity:1; fill:none" points="986.573,565.303 986.573,504.068 "/>
<polyline clip-path="url(#clip522)" style="stroke:#0000ff; stroke-linecap:round; stroke-linejoin:round; stroke-width:4; stroke-opacity:1; fill:none" points="1349.46,775.282 1349.46,500.65 "/>
<polyline clip-path="url(#clip522)" style="stroke:#0000ff; stroke-linecap:round; stroke-linejoin:round; stroke-width:4; stroke-opacity:1; fill:none" points="1639.78,771.864 1639.78,710.629 "/>
<polyline clip-path="url(#clip522)" style="stroke:#0000ff; stroke-linecap:round; stroke-linejoin:round; stroke-width:4; stroke-opacity:1; fill:none" points="2042.99,1007.1 2042.99,977.136 "/>
<polyline clip-path="url(#clip522)" style="stroke:#0000ff; stroke-linecap:round; stroke-linejoin:round; stroke-width:4; stroke-opacity:1; fill:none" points="2409.92,298.796 2409.92,268.833 "/>
<polyline clip-path="url(#clip522)" style="stroke:#0000ff; stroke-linecap:round; stroke-linejoin:round; stroke-width:4; stroke-opacity:0.5; fill:none" stroke-dasharray="16, 10" points="393.849,298.796 478.524,298.796 "/>
<polyline clip-path="url(#clip522)" style="stroke:#0000ff; stroke-linecap:round; stroke-linejoin:round; stroke-width:4; stroke-opacity:0.5; fill:none" stroke-dasharray="16, 10" points="252.725,637.966 651.906,637.966 "/>
<polyline clip-path="url(#clip522)" style="stroke:#0000ff; stroke-linecap:round; stroke-linejoin:round; stroke-width:4; stroke-opacity:0.5; fill:none" stroke-dasharray="16, 10" points="881.737,565.303 986.573,565.303 "/>
<polyline clip-path="url(#clip522)" style="stroke:#0000ff; stroke-linecap:round; stroke-linejoin:round; stroke-width:4; stroke-opacity:0.5; fill:none" stroke-dasharray="16, 10" points="1172.05,775.282 1349.46,775.282 "/>
<polyline clip-path="url(#clip522)" style="stroke:#0000ff; stroke-linecap:round; stroke-linejoin:round; stroke-width:4; stroke-opacity:0.5; fill:none" stroke-dasharray="16, 10" points="1534.94,771.864 1639.78,771.864 "/>
<polyline clip-path="url(#clip522)" style="stroke:#0000ff; stroke-linecap:round; stroke-linejoin:round; stroke-width:4; stroke-opacity:0.5; fill:none" stroke-dasharray="16, 10" points="2042.99,1007.1 2127.67,1007.1 "/>
<polyline clip-path="url(#clip522)" style="stroke:#0000ff; stroke-linecap:round; stroke-linejoin:round; stroke-width:4; stroke-opacity:0.5; fill:none" stroke-dasharray="16, 10" points="2409.92,298.796 2494.59,298.796 "/>
<polyline clip-path="url(#clip522)" style="stroke:#808080; stroke-linecap:round; stroke-linejoin:round; stroke-width:4; stroke-opacity:1; fill:none" stroke-dasharray="16, 10" points="363.561,283.814 434.633,283.814 "/>
<polyline clip-path="url(#clip522)" style="stroke:#808080; stroke-linecap:round; stroke-linejoin:round; stroke-width:4; stroke-opacity:1; fill:none" stroke-dasharray="16, 10" points="323.978,359.324 773.11,359.324 "/>
<polyline clip-path="url(#clip522)" style="stroke:#808080; stroke-linecap:round; stroke-linejoin:round; stroke-width:4; stroke-opacity:1; fill:none" stroke-dasharray="16, 10" points="932.014,534.685 1029.36,534.685 "/>
<polyline clip-path="url(#clip522)" style="stroke:#808080; stroke-linecap:round; stroke-linejoin:round; stroke-width:4; stroke-opacity:1; fill:none" stroke-dasharray="16, 10" points="1260.76,637.966 1439.96,637.966 "/>
<polyline clip-path="url(#clip522)" style="stroke:#808080; stroke-linecap:round; stroke-linejoin:round; stroke-width:4; stroke-opacity:1; fill:none" stroke-dasharray="16, 10" points="1589.5,741.246 1682.61,741.246 "/>
<polyline clip-path="url(#clip522)" style="stroke:#808080; stroke-linecap:round; stroke-linejoin:round; stroke-width:4; stroke-opacity:1; fill:none" stroke-dasharray="16, 10" points="2010.7,992.118 2086.88,992.118 "/>
<polyline clip-path="url(#clip522)" style="stroke:#808080; stroke-linecap:round; stroke-linejoin:round; stroke-width:4; stroke-opacity:1; fill:none" stroke-dasharray="16, 10" points="2379.63,283.814 2450.7,283.814 "/>
<circle clip-path="url(#clip522)" cx="363.561" cy="283.814" r="14.4" fill="#808080" fill-rule="evenodd" fill-opacity="1" stroke="#000000" stroke-opacity="1" stroke-width="2.688"/>
<circle clip-path="url(#clip522)" cx="434.633" cy="283.814" r="14.4" fill="#808080" fill-rule="evenodd" fill-opacity="1" stroke="#000000" stroke-opacity="1" stroke-width="2.688"/>
<circle clip-path="url(#clip522)" cx="323.978" cy="359.324" r="14.4" fill="#808080" fill-rule="evenodd" fill-opacity="1" stroke="#000000" stroke-opacity="1" stroke-width="2.688"/>
<circle clip-path="url(#clip522)" cx="773.11" cy="359.324" r="14.4" fill="#808080" fill-rule="evenodd" fill-opacity="1" stroke="#000000" stroke-opacity="1" stroke-width="2.688"/>
<circle clip-path="url(#clip522)" cx="932.014" cy="534.685" r="14.4" fill="#808080" fill-rule="evenodd" fill-opacity="1" stroke="#000000" stroke-opacity="1" stroke-width="2.688"/>
<circle clip-path="url(#clip522)" cx="1029.36" cy="534.685" r="14.4" fill="#808080" fill-rule="evenodd" fill-opacity="1" stroke="#000000" stroke-opacity="1" stroke-width="2.688"/>
<circle clip-path="url(#clip522)" cx="1260.76" cy="637.966" r="14.4" fill="#808080" fill-rule="evenodd" fill-opacity="1" stroke="#000000" stroke-opacity="1" stroke-width="2.688"/>
<circle clip-path="url(#clip522)" cx="1439.96" cy="637.966" r="14.4" fill="#808080" fill-rule="evenodd" fill-opacity="1" stroke="#000000" stroke-opacity="1" stroke-width="2.688"/>
<circle clip-path="url(#clip522)" cx="1589.5" cy="741.246" r="14.4" fill="#808080" fill-rule="evenodd" fill-opacity="1" stroke="#000000" stroke-opacity="1" stroke-width="2.688"/>
<circle clip-path="url(#clip522)" cx="1682.61" cy="741.246" r="14.4" fill="#808080" fill-rule="evenodd" fill-opacity="1" stroke="#000000" stroke-opacity="1" stroke-width="2.688"/>
<circle clip-path="url(#clip522)" cx="2010.7" cy="992.118" r="14.4" fill="#808080" fill-rule="evenodd" fill-opacity="1" stroke="#000000" stroke-opacity="1" stroke-width="2.688"/>
<circle clip-path="url(#clip522)" cx="2086.88" cy="992.118" r="14.4" fill="#808080" fill-rule="evenodd" fill-opacity="1" stroke="#000000" stroke-opacity="1" stroke-width="2.688"/>
<circle clip-path="url(#clip522)" cx="2379.63" cy="283.814" r="14.4" fill="#808080" fill-rule="evenodd" fill-opacity="1" stroke="#000000" stroke-opacity="1" stroke-width="2.688"/>
<circle clip-path="url(#clip522)" cx="2450.7" cy="283.814" r="14.4" fill="#808080" fill-rule="evenodd" fill-opacity="1" stroke="#000000" stroke-opacity="1" stroke-width="2.688"/>
<circle clip-path="url(#clip522)" cx="393.849" cy="268.833" r="14.4" fill="#ff0000" fill-rule="evenodd" fill-opacity="1" stroke="#000000" stroke-opacity="1" stroke-width="2.688"/>
<circle clip-path="url(#clip522)" cx="651.906" cy="80.6812" r="14.4" fill="#ff0000" fill-rule="evenodd" fill-opacity="1" stroke="#000000" stroke-opacity="1" stroke-width="2.688"/>
<circle clip-path="url(#clip522)" cx="986.573" cy="504.068" r="14.4" fill="#ff0000" fill-rule="evenodd" fill-opacity="1" stroke="#000000" stroke-opacity="1" stroke-width="2.688"/>
<circle clip-path="url(#clip522)" cx="1349.46" cy="500.65" r="14.4" fill="#ff0000" fill-rule="evenodd" fill-opacity="1" stroke="#000000" stroke-opacity="1" stroke-width="2.688"/>
<circle clip-path="url(#clip522)" cx="1639.78" cy="710.629" r="14.4" fill="#ff0000" fill-rule="evenodd" fill-opacity="1" stroke="#000000" stroke-opacity="1" stroke-width="2.688"/>
<circle clip-path="url(#clip522)" cx="2042.99" cy="977.136" r="14.4" fill="#ff0000" fill-rule="evenodd" fill-opacity="1" stroke="#000000" stroke-opacity="1" stroke-width="2.688"/>
<circle clip-path="url(#clip522)" cx="2409.92" cy="268.833" r="14.4" fill="#ff0000" fill-rule="evenodd" fill-opacity="1" stroke="#000000" stroke-opacity="1" stroke-width="2.688"/>
<path clip-path="url(#clip520)" d="M265.09 1189.31 L922.686 1189.31 L922.686 800.506 L265.09 800.506  Z" fill="#ffffff" fill-rule="evenodd" fill-opacity="1"/>
<polyline clip-path="url(#clip520)" style="stroke:#000000; stroke-linecap:round; stroke-linejoin:round; stroke-width:4; stroke-opacity:1; fill:none" points="265.09,1189.31 922.686,1189.31 922.686,800.506 265.09,800.506 265.09,1189.31 "/>
<polyline clip-path="url(#clip520)" style="stroke:#000000; stroke-linecap:round; stroke-linejoin:round; stroke-width:12; stroke-opacity:1; fill:none" points="292.396,878.266 456.235,878.266 "/>
<path clip-path="url(#clip520)" d="M511.181 866.444 L511.181 872.485 Q508.472 871.096 505.556 870.402 Q502.639 869.707 499.514 869.707 Q494.757 869.707 492.361 871.166 Q490 872.624 490 875.541 Q490 877.763 491.701 879.048 Q493.403 880.298 498.542 881.443 L500.729 881.93 Q507.535 883.388 510.382 886.062 Q513.264 888.7 513.264 893.457 Q513.264 898.874 508.958 902.034 Q504.688 905.193 497.188 905.193 Q494.063 905.193 490.66 904.568 Q487.292 903.978 483.542 902.763 L483.542 896.166 Q487.083 898.006 490.521 898.943 Q493.958 899.846 497.326 899.846 Q501.84 899.846 504.271 898.318 Q506.701 896.756 506.701 893.943 Q506.701 891.339 504.931 889.95 Q503.194 888.561 497.257 887.277 L495.035 886.756 Q489.097 885.506 486.458 882.937 Q483.82 880.332 483.82 875.819 Q483.82 870.332 487.708 867.346 Q491.597 864.36 498.75 864.36 Q502.292 864.36 505.417 864.881 Q508.542 865.402 511.181 866.444 Z" fill="#000000" fill-rule="nonzero" fill-opacity="1" /><path clip-path="url(#clip520)" d="M523.437 865.298 L529.826 865.298 L529.826 904.186 L523.437 904.186 L523.437 865.298 M523.437 850.159 L529.826 850.159 L529.826 858.249 L523.437 858.249 L523.437 850.159 Z" fill="#000000" fill-rule="nonzero" fill-opacity="1" /><path clip-path="url(#clip520)" d="M568.784 884.291 Q568.784 877.346 565.902 873.527 Q563.055 869.707 557.882 869.707 Q552.743 869.707 549.861 873.527 Q547.014 877.346 547.014 884.291 Q547.014 891.2 549.861 895.02 Q552.743 898.839 557.882 898.839 Q563.055 898.839 565.902 895.02 Q568.784 891.2 568.784 884.291 M575.173 899.36 Q575.173 909.291 570.764 914.117 Q566.354 918.978 557.257 918.978 Q553.889 918.978 550.903 918.457 Q547.916 917.971 545.104 916.929 L545.104 910.714 Q547.916 912.242 550.66 912.971 Q553.403 913.7 556.25 913.7 Q562.534 913.7 565.659 910.402 Q568.784 907.138 568.784 900.506 L568.784 897.346 Q566.805 900.784 563.715 902.485 Q560.625 904.186 556.319 904.186 Q549.166 904.186 544.791 898.735 Q540.417 893.284 540.417 884.291 Q540.417 875.263 544.791 869.812 Q549.166 864.36 556.319 864.36 Q560.625 864.36 563.715 866.062 Q566.805 867.763 568.784 871.2 L568.784 865.298 L575.173 865.298 L575.173 899.36 Z" fill="#000000" fill-rule="nonzero" fill-opacity="1" /><path clip-path="url(#clip520)" d="M620.659 880.714 L620.659 904.186 L614.27 904.186 L614.27 880.923 Q614.27 875.402 612.118 872.659 Q609.965 869.916 605.659 869.916 Q600.486 869.916 597.5 873.214 Q594.513 876.513 594.513 882.207 L594.513 904.186 L588.09 904.186 L588.09 865.298 L594.513 865.298 L594.513 871.339 Q596.805 867.832 599.895 866.096 Q603.02 864.36 607.083 864.36 Q613.784 864.36 617.222 868.527 Q620.659 872.659 620.659 880.714 Z" fill="#000000" fill-rule="nonzero" fill-opacity="1" /><path clip-path="url(#clip520)" d="M651.076 884.638 Q643.333 884.638 640.347 886.409 Q637.36 888.18 637.36 892.45 Q637.36 895.853 639.583 897.867 Q641.84 899.846 645.694 899.846 Q651.006 899.846 654.201 896.096 Q657.43 892.311 657.43 886.062 L657.43 884.638 L651.076 884.638 M663.819 881.999 L663.819 904.186 L657.43 904.186 L657.43 898.284 Q655.242 901.825 651.978 903.527 Q648.715 905.193 643.992 905.193 Q638.02 905.193 634.479 901.86 Q630.972 898.492 630.972 892.867 Q630.972 886.305 635.347 882.971 Q639.756 879.638 648.471 879.638 L657.43 879.638 L657.43 879.013 Q657.43 874.603 654.513 872.207 Q651.631 869.777 646.388 869.777 Q643.055 869.777 639.895 870.575 Q636.735 871.374 633.819 872.971 L633.819 867.069 Q637.326 865.714 640.624 865.055 Q643.923 864.36 647.048 864.36 Q655.485 864.36 659.652 868.735 Q663.819 873.11 663.819 881.999 Z" fill="#000000" fill-rule="nonzero" fill-opacity="1" /><path clip-path="url(#clip520)" d="M676.978 850.159 L683.367 850.159 L683.367 904.186 L676.978 904.186 L676.978 850.159 Z" fill="#000000" fill-rule="nonzero" fill-opacity="1" /><polyline clip-path="url(#clip520)" style="stroke:#0000ff; stroke-linecap:round; stroke-linejoin:round; stroke-width:6; stroke-opacity:1; fill:none" points="292.396,956.026 456.235,956.026 "/>
<path clip-path="url(#clip520)" d="M489.965 976.113 L489.965 996.738 L483.542 996.738 L483.542 943.058 L489.965 943.058 L489.965 948.96 Q491.979 945.488 495.035 943.822 Q498.125 942.12 502.396 942.12 Q509.479 942.12 513.889 947.745 Q518.333 953.37 518.333 962.537 Q518.333 971.703 513.889 977.328 Q509.479 982.953 502.396 982.953 Q498.125 982.953 495.035 981.287 Q491.979 979.585 489.965 976.113 M511.701 962.537 Q511.701 955.488 508.785 951.495 Q505.903 947.467 500.833 947.467 Q495.764 947.467 492.847 951.495 Q489.965 955.488 489.965 962.537 Q489.965 969.585 492.847 973.613 Q495.764 977.606 500.833 977.606 Q505.903 977.606 508.785 973.613 Q511.701 969.585 511.701 962.537 Z" fill="#000000" fill-rule="nonzero" fill-opacity="1" /><path clip-path="url(#clip520)" d="M551.458 949.03 Q550.382 948.405 549.097 948.127 Q547.847 947.815 546.319 947.815 Q540.903 947.815 537.986 951.356 Q535.104 954.863 535.104 961.46 L535.104 981.946 L528.68 981.946 L528.68 943.058 L535.104 943.058 L535.104 949.099 Q537.118 945.558 540.347 943.856 Q543.576 942.12 548.194 942.12 Q548.854 942.12 549.653 942.224 Q550.451 942.294 551.423 942.467 L551.458 949.03 Z" fill="#000000" fill-rule="nonzero" fill-opacity="1" /><path clip-path="url(#clip520)" d="M571.666 947.537 Q566.527 947.537 563.541 951.565 Q560.555 955.558 560.555 962.537 Q560.555 969.516 563.507 973.544 Q566.493 977.537 571.666 977.537 Q576.77 977.537 579.757 973.509 Q582.743 969.481 582.743 962.537 Q582.743 955.627 579.757 951.599 Q576.77 947.537 571.666 947.537 M571.666 942.12 Q580 942.12 584.757 947.537 Q589.513 952.954 589.513 962.537 Q589.513 972.085 584.757 977.537 Q580 982.953 571.666 982.953 Q563.298 982.953 558.541 977.537 Q553.819 972.085 553.819 962.537 Q553.819 952.954 558.541 947.537 Q563.298 942.12 571.666 942.12 Z" fill="#000000" fill-rule="nonzero" fill-opacity="1" /><path clip-path="url(#clip520)" d="M630.381 950.523 Q632.777 946.217 636.11 944.169 Q639.444 942.12 643.958 942.12 Q650.034 942.12 653.333 946.391 Q656.631 950.627 656.631 958.474 L656.631 981.946 L650.208 981.946 L650.208 958.683 Q650.208 953.092 648.228 950.384 Q646.249 947.676 642.187 947.676 Q637.222 947.676 634.34 950.974 Q631.458 954.273 631.458 959.967 L631.458 981.946 L625.034 981.946 L625.034 958.683 Q625.034 953.058 623.055 950.384 Q621.076 947.676 616.944 947.676 Q612.048 947.676 609.166 951.009 Q606.284 954.308 606.284 959.967 L606.284 981.946 L599.861 981.946 L599.861 943.058 L606.284 943.058 L606.284 949.099 Q608.472 945.523 611.527 943.822 Q614.583 942.12 618.784 942.12 Q623.02 942.12 625.972 944.273 Q628.958 946.426 630.381 950.523 Z" fill="#000000" fill-rule="nonzero" fill-opacity="1" /><path clip-path="url(#clip520)" d="M669.374 943.058 L675.763 943.058 L675.763 981.946 L669.374 981.946 L669.374 943.058 M669.374 927.919 L675.763 927.919 L675.763 936.009 L669.374 936.009 L669.374 927.919 Z" fill="#000000" fill-rule="nonzero" fill-opacity="1" /><path clip-path="url(#clip520)" d="M721.457 958.474 L721.457 981.946 L715.068 981.946 L715.068 958.683 Q715.068 953.162 712.916 950.419 Q710.763 947.676 706.457 947.676 Q701.284 947.676 698.298 950.974 Q695.312 954.273 695.312 959.967 L695.312 981.946 L688.888 981.946 L688.888 943.058 L695.312 943.058 L695.312 949.099 Q697.603 945.592 700.693 943.856 Q703.818 942.12 707.881 942.12 Q714.582 942.12 718.02 946.287 Q721.457 950.419 721.457 958.474 Z" fill="#000000" fill-rule="nonzero" fill-opacity="1" /><path clip-path="url(#clip520)" d="M767.464 960.905 L767.464 964.03 L738.089 964.03 Q738.506 970.627 742.047 974.099 Q745.624 977.537 751.978 977.537 Q755.658 977.537 759.096 976.634 Q762.568 975.731 765.971 973.926 L765.971 979.967 Q762.533 981.426 758.922 982.189 Q755.311 982.953 751.596 982.953 Q742.29 982.953 736.839 977.537 Q731.422 972.12 731.422 962.884 Q731.422 953.335 736.561 947.745 Q741.735 942.12 750.485 942.12 Q758.332 942.12 762.881 947.19 Q767.464 952.224 767.464 960.905 M761.075 959.03 Q761.006 953.787 758.124 950.662 Q755.276 947.537 750.554 947.537 Q745.207 947.537 741.978 950.558 Q738.784 953.579 738.297 959.065 L761.075 959.03 Z" fill="#000000" fill-rule="nonzero" fill-opacity="1" /><path clip-path="url(#clip520)" d="M810.276 958.474 L810.276 981.946 L803.887 981.946 L803.887 958.683 Q803.887 953.162 801.735 950.419 Q799.582 947.676 795.276 947.676 Q790.103 947.676 787.117 950.974 Q784.13 954.273 784.13 959.967 L784.13 981.946 L777.707 981.946 L777.707 943.058 L784.13 943.058 L784.13 949.099 Q786.422 945.592 789.512 943.856 Q792.637 942.12 796.7 942.12 Q803.401 942.12 806.839 946.287 Q810.276 950.419 810.276 958.474 Z" fill="#000000" fill-rule="nonzero" fill-opacity="1" /><path clip-path="url(#clip520)" d="M851.005 944.551 L851.005 950.523 Q848.297 949.03 845.554 948.301 Q842.845 947.537 840.068 947.537 Q833.852 947.537 830.415 951.495 Q826.977 955.419 826.977 962.537 Q826.977 969.655 830.415 973.613 Q833.852 977.537 840.068 977.537 Q842.845 977.537 845.554 976.808 Q848.297 976.044 851.005 974.551 L851.005 980.453 Q848.332 981.703 845.45 982.328 Q842.602 982.953 839.373 982.953 Q830.589 982.953 825.415 977.433 Q820.241 971.912 820.241 962.537 Q820.241 953.023 825.45 947.572 Q830.693 942.12 839.79 942.12 Q842.741 942.12 845.554 942.745 Q848.366 943.336 851.005 944.551 Z" fill="#000000" fill-rule="nonzero" fill-opacity="1" /><path clip-path="url(#clip520)" d="M895.38 960.905 L895.38 964.03 L866.005 964.03 Q866.422 970.627 869.963 974.099 Q873.54 977.537 879.894 977.537 Q883.574 977.537 887.012 976.634 Q890.484 975.731 893.887 973.926 L893.887 979.967 Q890.449 981.426 886.838 982.189 Q883.227 982.953 879.512 982.953 Q870.206 982.953 864.755 977.537 Q859.338 972.12 859.338 962.884 Q859.338 953.335 864.477 947.745 Q869.651 942.12 878.401 942.12 Q886.248 942.12 890.797 947.19 Q895.38 952.224 895.38 960.905 M888.991 959.03 Q888.922 953.787 886.04 950.662 Q883.192 947.537 878.47 947.537 Q873.123 947.537 869.894 950.558 Q866.699 953.579 866.213 959.065 L888.991 959.03 Z" fill="#000000" fill-rule="nonzero" fill-opacity="1" /><polyline clip-path="url(#clip520)" style="stroke:#808080; stroke-linecap:round; stroke-linejoin:round; stroke-width:6; stroke-opacity:1; fill:none" stroke-dasharray="24, 15" points="292.396,1033.79 456.235,1033.79 "/>
<path clip-path="url(#clip520)" d="M483.542 1020.82 L489.931 1020.82 L497.917 1051.16 L505.868 1020.82 L513.403 1020.82 L521.389 1051.16 L529.34 1020.82 L535.729 1020.82 L525.555 1059.71 L518.021 1059.71 L509.653 1027.83 L501.25 1059.71 L493.715 1059.71 L483.542 1020.82 Z" fill="#000000" fill-rule="nonzero" fill-opacity="1" /><path clip-path="url(#clip520)" d="M545.416 1020.82 L551.805 1020.82 L551.805 1059.71 L545.416 1059.71 L545.416 1020.82 M545.416 1005.68 L551.805 1005.68 L551.805 1013.77 L545.416 1013.77 L545.416 1005.68 Z" fill="#000000" fill-rule="nonzero" fill-opacity="1" /><path clip-path="url(#clip520)" d="M590.763 1026.72 L590.763 1005.68 L597.152 1005.68 L597.152 1059.71 L590.763 1059.71 L590.763 1053.87 Q588.75 1057.35 585.659 1059.05 Q582.604 1060.71 578.298 1060.71 Q571.25 1060.71 566.805 1055.09 Q562.396 1049.46 562.396 1040.3 Q562.396 1031.13 566.805 1025.51 Q571.25 1019.88 578.298 1019.88 Q582.604 1019.88 585.659 1021.58 Q588.75 1023.25 590.763 1026.72 M568.993 1040.3 Q568.993 1047.35 571.875 1051.37 Q574.791 1055.37 579.861 1055.37 Q584.93 1055.37 587.847 1051.37 Q590.763 1047.35 590.763 1040.3 Q590.763 1033.25 587.847 1029.26 Q584.93 1025.23 579.861 1025.23 Q574.791 1025.23 571.875 1029.26 Q568.993 1033.25 568.993 1040.3 Z" fill="#000000" fill-rule="nonzero" fill-opacity="1" /><path clip-path="url(#clip520)" d="M616.631 1009.78 L616.631 1020.82 L629.791 1020.82 L629.791 1025.78 L616.631 1025.78 L616.631 1046.89 Q616.631 1051.65 617.916 1053.01 Q619.236 1054.36 623.229 1054.36 L629.791 1054.36 L629.791 1059.71 L623.229 1059.71 Q615.833 1059.71 613.02 1056.96 Q610.208 1054.19 610.208 1046.89 L610.208 1025.78 L605.52 1025.78 L605.52 1020.82 L610.208 1020.82 L610.208 1009.78 L616.631 1009.78 Z" fill="#000000" fill-rule="nonzero" fill-opacity="1" /><path clip-path="url(#clip520)" d="M670.52 1036.23 L670.52 1059.71 L664.131 1059.71 L664.131 1036.44 Q664.131 1030.92 661.978 1028.18 Q659.826 1025.44 655.52 1025.44 Q650.346 1025.44 647.36 1028.73 Q644.374 1032.03 644.374 1037.73 L644.374 1059.71 L637.951 1059.71 L637.951 1005.68 L644.374 1005.68 L644.374 1026.86 Q646.666 1023.35 649.756 1021.62 Q652.881 1019.88 656.944 1019.88 Q663.645 1019.88 667.083 1024.05 Q670.52 1028.18 670.52 1036.23 Z" fill="#000000" fill-rule="nonzero" fill-opacity="1" /><circle clip-path="url(#clip520)" cx="374.316" cy="1111.55" r="30.72" fill="#ff0000" fill-rule="evenodd" fill-opacity="1" stroke="#000000" stroke-opacity="1" stroke-width="5.7344"/>
<path clip-path="url(#clip520)" d="M514.062 1106.04 Q516.458 1101.74 519.792 1099.69 Q523.125 1097.64 527.639 1097.64 Q533.715 1097.64 537.014 1101.91 Q540.312 1106.15 540.312 1113.99 L540.312 1137.47 L533.889 1137.47 L533.889 1114.2 Q533.889 1108.61 531.91 1105.9 Q529.93 1103.2 525.868 1103.2 Q520.903 1103.2 518.021 1106.49 Q515.139 1109.79 515.139 1115.49 L515.139 1137.47 L508.715 1137.47 L508.715 1114.2 Q508.715 1108.58 506.736 1105.9 Q504.757 1103.2 500.625 1103.2 Q495.729 1103.2 492.847 1106.53 Q489.965 1109.83 489.965 1115.49 L489.965 1137.47 L483.542 1137.47 L483.542 1098.58 L489.965 1098.58 L489.965 1104.62 Q492.153 1101.04 495.208 1099.34 Q498.264 1097.64 502.465 1097.64 Q506.701 1097.64 509.653 1099.79 Q512.639 1101.95 514.062 1106.04 Z" fill="#000000" fill-rule="nonzero" fill-opacity="1" /><path clip-path="url(#clip520)" d="M570.729 1117.92 Q562.986 1117.92 560 1119.69 Q557.014 1121.46 557.014 1125.73 Q557.014 1129.13 559.236 1131.15 Q561.493 1133.13 565.347 1133.13 Q570.659 1133.13 573.854 1129.38 Q577.083 1125.59 577.083 1119.34 L577.083 1117.92 L570.729 1117.92 M583.472 1115.28 L583.472 1137.47 L577.083 1137.47 L577.083 1131.56 Q574.895 1135.11 571.632 1136.81 Q568.368 1138.47 563.646 1138.47 Q557.673 1138.47 554.132 1135.14 Q550.625 1131.77 550.625 1126.15 Q550.625 1119.58 555 1116.25 Q559.409 1112.92 568.125 1112.92 L577.083 1112.92 L577.083 1112.29 Q577.083 1107.88 574.166 1105.49 Q571.284 1103.06 566.041 1103.06 Q562.708 1103.06 559.548 1103.86 Q556.389 1104.65 553.472 1106.25 L553.472 1100.35 Q556.979 1098.99 560.278 1098.33 Q563.576 1097.64 566.701 1097.64 Q575.139 1097.64 579.305 1102.02 Q583.472 1106.39 583.472 1115.28 Z" fill="#000000" fill-rule="nonzero" fill-opacity="1" /><path clip-path="url(#clip520)" d="M628.958 1098.58 L614.895 1117.5 L629.687 1137.47 L622.152 1137.47 L610.833 1122.19 L599.513 1137.47 L591.979 1137.47 L607.083 1117.12 L593.263 1098.58 L600.798 1098.58 L611.111 1112.43 L621.423 1098.58 L628.958 1098.58 Z" fill="#000000" fill-rule="nonzero" fill-opacity="1" /><path clip-path="url(#clip520)" d="M638.715 1098.58 L645.103 1098.58 L645.103 1137.47 L638.715 1137.47 L638.715 1098.58 M638.715 1083.44 L645.103 1083.44 L645.103 1091.53 L638.715 1091.53 L638.715 1083.44 Z" fill="#000000" fill-rule="nonzero" fill-opacity="1" /><path clip-path="url(#clip520)" d="M688.749 1106.04 Q691.145 1101.74 694.478 1099.69 Q697.812 1097.64 702.325 1097.64 Q708.402 1097.64 711.7 1101.91 Q714.999 1106.15 714.999 1113.99 L714.999 1137.47 L708.575 1137.47 L708.575 1114.2 Q708.575 1108.61 706.596 1105.9 Q704.617 1103.2 700.555 1103.2 Q695.589 1103.2 692.707 1106.49 Q689.825 1109.79 689.825 1115.49 L689.825 1137.47 L683.402 1137.47 L683.402 1114.2 Q683.402 1108.58 681.423 1105.9 Q679.444 1103.2 675.312 1103.2 Q670.416 1103.2 667.534 1106.53 Q664.652 1109.83 664.652 1115.49 L664.652 1137.47 L658.228 1137.47 L658.228 1098.58 L664.652 1098.58 L664.652 1104.62 Q666.839 1101.04 669.895 1099.34 Q672.951 1097.64 677.152 1097.64 Q681.388 1097.64 684.339 1099.79 Q687.325 1101.95 688.749 1106.04 Z" fill="#000000" fill-rule="nonzero" fill-opacity="1" /><path clip-path="url(#clip520)" d="M745.415 1117.92 Q737.672 1117.92 734.686 1119.69 Q731.7 1121.46 731.7 1125.73 Q731.7 1129.13 733.922 1131.15 Q736.179 1133.13 740.034 1133.13 Q745.346 1133.13 748.54 1129.38 Q751.77 1125.59 751.77 1119.34 L751.77 1117.92 L745.415 1117.92 M758.158 1115.28 L758.158 1137.47 L751.77 1137.47 L751.77 1131.56 Q749.582 1135.11 746.318 1136.81 Q743.054 1138.47 738.332 1138.47 Q732.36 1138.47 728.818 1135.14 Q725.311 1131.77 725.311 1126.15 Q725.311 1119.58 729.686 1116.25 Q734.096 1112.92 742.811 1112.92 L751.77 1112.92 L751.77 1112.29 Q751.77 1107.88 748.853 1105.49 Q745.971 1103.06 740.728 1103.06 Q737.395 1103.06 734.235 1103.86 Q731.075 1104.65 728.159 1106.25 L728.159 1100.35 Q731.665 1098.99 734.964 1098.33 Q738.263 1097.64 741.388 1097.64 Q749.825 1097.64 753.992 1102.02 Q758.158 1106.39 758.158 1115.28 Z" fill="#000000" fill-rule="nonzero" fill-opacity="1" /></svg>
